# xmcd
# Copyright (C) 1995-1998 Ti Kan
#
# Track frame offsets:
#       150
#       23977
#       42857
#       58767
#       78860
#       96442
#       116887
#       131945
#       146915
#       163682
#       181287
#
# Disc length: 2555 seconds
#
# Revision: 0
# Processed by: cddbd v1.4b42PL1 Copyright (c) Steve Scherf et al.
# Submitted via: CD-Transfer v1.0
#
DISCID=a009f90b
DTITLE=andi utzinger - elements
DYEAR=2000
DGENRE=
TTITLE0=there will be
TTITLE1=from a lover
TTITLE2=no escape
TTITLE3=eternity
TTITLE4=another life
TTITLE5=nutz
TTITLE6=come to me
TTITLE7=playgirl
TTITLE8=decision
TTITLE9=nature is in you
TTITLE10=our time
EXTD=
EXTT0=
EXTT1=
EXTT2=
EXTT3=
EXTT4=
EXTT5=
EXTT6=
EXTT7=
EXTT8=
EXTT9=
EXTT10=
PLAYORDER=
